<svg width="120" height="22" viewBox="0 0 120 22" fill="none" xmlns="http://www.w3.org/2000/svg">
<g clip-path="url(#clip0_4797_14857)">
<path d="M15.7143 1.85781V7.74894C15.7143 8.07797 15.5287 8.37877 15.2343 8.52555L12.7106 9.78684C12.4161 9.93361 12.2305 10.2344 12.2305 10.5635V20.1425C12.2305 20.6223 11.8416 21.011 11.3616 21.011H8.74589C8.26584 21.011 7.87695 20.6223 7.87695 20.1425V12.3022C7.87695 11.9731 8.06252 11.6723 8.357 11.5255L10.8807 10.2643C11.1752 10.1175 11.3608 9.81668 11.3608 9.48765V1.85781C11.3608 1.37797 11.7496 0.989258 12.2297 0.989258H14.8454C15.3254 0.989258 15.7143 1.37797 15.7143 1.85781Z" fill="#5CA3E5"/>
<path d="M7.87446 6.2123V7.74698C7.87446 8.07601 7.68889 8.37681 7.39441 8.52359L4.87071 9.78488C4.57622 9.93165 4.39066 10.2325 4.39066 10.5615V15.7897C4.39066 16.2696 4.00177 16.6583 3.52172 16.6583H0.906044C0.425992 16.6583 0.0371094 16.2696 0.0371094 15.7897V12.3002C0.0371094 11.9712 0.222676 11.6704 0.517161 11.5236L3.04086 10.2623C3.33535 10.1155 3.52091 9.81472 3.52091 9.48569V6.2123C3.52091 5.73246 3.9098 5.34375 4.38985 5.34375H7.00553C7.48558 5.34375 7.87446 5.73246 7.87446 6.2123Z" fill="#5CA3E5"/>
<path d="M20.0692 11.2882V15.7882C20.0692 16.2696 19.6787 16.66 19.197 16.66H16.587C16.1053 16.66 15.7148 16.2696 15.7148 15.7882V12.3067C15.7148 11.9769 15.9012 11.6745 16.1965 11.5269L18.5508 10.3503C19.2479 10.0019 20.0676 10.5084 20.0676 11.2874L20.0692 11.2882Z" fill="#5CA3E5"/>
<path d="M37.6207 14.9421H31.8036C31.614 14.9421 31.5083 14.7236 31.6261 14.5752L37.611 7.0131C37.6425 6.97278 37.6602 6.92359 37.6602 6.87278V5.57036C37.6602 5.44536 37.5586 5.34375 37.4335 5.34375H29.6421C29.5171 5.34375 29.4154 5.44536 29.4154 5.57036V6.83488C29.4154 6.95988 29.5171 7.06149 29.6421 7.06149H34.7872C34.9768 7.06149 35.0825 7.28004 34.9647 7.42843L28.9652 14.9905C28.9338 15.0308 28.916 15.08 28.916 15.1308V16.4333C28.916 16.5583 29.0177 16.6599 29.1427 16.6599H37.6215C37.7465 16.6599 37.8482 16.5583 37.8482 16.4333V15.1688C37.8482 15.0438 37.7465 14.9421 37.6215 14.9421H37.6207Z" fill="black"/>
<path d="M64.3276 6.77198V5.57036C64.3276 5.44536 64.2259 5.34375 64.1009 5.34375H38.838C38.713 5.34375 38.6113 5.44536 38.6113 5.57036V16.4325C38.6113 16.5575 38.713 16.6591 38.838 16.6591H46.3954C46.5205 16.6591 46.6221 16.5575 46.6221 16.4325V15.2147C46.6221 15.0897 46.5205 14.9881 46.3954 14.9881H40.8212C40.6961 14.9881 40.5945 14.8865 40.5945 14.7615V11.8897C40.5945 11.7647 40.6961 11.6631 40.8212 11.6631H46.0671C46.1921 11.6631 46.2938 11.5615 46.2938 11.4365V10.2502C46.2938 10.1252 46.1921 10.0236 46.0671 10.0236H40.8212C40.6961 10.0236 40.5945 9.92198 40.5945 9.79698V7.22198C40.5945 7.09698 40.6961 6.99536 40.8212 6.99536H49.705C49.83 6.99536 49.9317 7.09698 49.9317 7.22198V16.43C49.9317 16.555 50.0333 16.6567 50.1584 16.6567H51.6889C51.814 16.6567 51.9156 16.555 51.9156 16.43V7.22198C51.9156 7.09698 52.0173 6.99536 52.1423 6.99536H58.5589C58.6839 6.99536 58.7856 7.09698 58.7856 7.22198V16.43C58.7856 16.555 58.8873 16.6567 59.0123 16.6567H60.5428C60.6679 16.6567 60.7696 16.555 60.7696 16.43V7.22198C60.7696 7.09698 60.8712 6.99536 60.9963 6.99536H64.1033C64.2283 6.99536 64.33 6.89375 64.33 6.76875L64.3276 6.77198Z" fill="black"/>
<path d="M68.8948 5.4915C68.8617 5.4036 68.777 5.34473 68.6826 5.34473H66.9044C66.81 5.34473 66.7253 5.4036 66.6922 5.49231L62.6452 16.3544C62.5904 16.502 62.6993 16.66 62.8574 16.66H64.4C64.4961 16.66 64.5824 16.5988 64.6139 16.5084L65.3827 14.2996C65.4142 14.2084 65.5005 14.148 65.5965 14.148H69.8662C69.9622 14.148 70.0477 14.2084 70.08 14.2988L70.8634 16.5101C70.8957 16.6004 70.9812 16.6609 71.0772 16.6609H72.761C72.9192 16.6609 73.0289 16.5028 72.9732 16.3552L68.8964 5.49231L68.8948 5.4915ZM69.1134 12.4923H66.3332C66.1774 12.4923 66.0677 12.3383 66.1194 12.1915L67.503 8.24553C67.574 8.04392 67.8588 8.04392 67.9298 8.24553L69.3264 12.1915C69.3789 12.3391 69.2691 12.4931 69.1126 12.4931L69.1134 12.4923Z" fill="black"/>
<path d="M80.8421 10.8149C80.7058 10.7367 80.6856 10.5488 80.805 10.4463C81.0608 10.2286 81.2819 9.93586 81.469 9.56811C81.6732 9.16811 81.7789 8.72295 81.7837 8.27456C81.8039 6.32134 80.4452 5.34473 77.7085 5.34473H73.672C73.547 5.34473 73.4453 5.44634 73.4453 5.57134V16.4334C73.4453 16.5584 73.547 16.66 73.672 16.66H77.9893C79.2487 16.66 80.2685 16.3867 81.0495 15.8407C81.8305 15.2947 82.2202 14.4496 82.2202 13.3044C82.2202 12.1592 81.7603 11.3415 80.8413 10.8157L80.8421 10.8149ZM75.4293 7.16247C75.4293 7.03747 75.5309 6.93586 75.656 6.93586H77.8965C78.4685 6.93586 78.9244 7.06569 79.2624 7.32618C79.6005 7.58666 79.7699 7.96086 79.7699 8.44956C79.7699 9.53182 79.1454 10.073 77.8965 10.073H75.656C75.5309 10.073 75.4293 9.97134 75.4293 9.84634V7.16166V7.16247ZM78.0675 15.0673H75.6552C75.5301 15.0673 75.4285 14.9657 75.4285 14.8407V11.8133C75.4285 11.6883 75.5301 11.5867 75.6552 11.5867H77.9578C79.4359 11.5867 80.1749 12.1592 80.1749 13.3036C80.1749 14.448 79.4722 15.0673 78.0667 15.0673H78.0675Z" fill="black"/>
<path d="M103.214 6.99859H108.788C108.913 6.99859 109.015 6.89698 109.015 6.77198V5.57036C109.015 5.44536 108.913 5.34375 108.788 5.34375H89.77C89.6885 5.34375 89.6134 5.3873 89.5731 5.45746L86.9493 10.051C86.8622 10.2042 86.6403 10.2026 86.5548 10.0486L84.0045 5.45988C83.965 5.38811 83.8891 5.34375 83.8068 5.34375H82.0706C81.8955 5.34375 81.7866 5.53327 81.8753 5.68407L85.6891 12.2042C85.7093 12.2389 85.7198 12.2784 85.7198 12.3188V16.4325C85.7198 16.5575 85.8214 16.6591 85.9465 16.6591H87.477C87.6021 16.6591 87.7037 16.5575 87.7037 16.4325V12.3518C87.7037 12.3107 87.715 12.2704 87.736 12.2357L90.814 7.10827C90.8551 7.03972 90.9285 6.99859 91.0084 6.99859H94.8004C94.9255 6.99859 95.0271 7.1002 95.0271 7.2252V16.4333C95.0271 16.5583 95.1288 16.6599 95.2538 16.6599H96.7844C96.9094 16.6599 97.0111 16.5583 97.0111 16.4333V7.2252C97.0111 7.1002 97.1127 6.99859 97.2378 6.99859H101.009V16.4333C101.009 16.5583 101.11 16.6599 101.236 16.6599H108.793C108.918 16.6599 109.02 16.5583 109.02 16.4333V15.2155C109.02 15.0905 108.918 14.9889 108.793 14.9889H103.219C103.094 14.9889 102.992 14.8873 102.992 14.7623V11.8905C102.992 11.7655 103.094 11.6639 103.219 11.6639H108.465C108.59 11.6639 108.691 11.5623 108.691 11.4373V10.251C108.691 10.126 108.59 10.0244 108.465 10.0244H103.219C103.094 10.0244 102.992 9.92278 102.992 9.79778V7.22278C102.992 7.09778 103.094 6.99617 103.219 6.99617L103.214 6.99859Z" fill="black"/>
</g>
<defs>
<clipPath id="clip0_4797_14857">
<rect width="109" height="20" fill="white" transform="translate(0 1)"/>
</clipPath>
</defs>
</svg>
