<?xml version="1.0" encoding="UTF-8"?><svg id="Layer_1" xmlns="http://www.w3.org/2000/svg" viewBox="0 0 1179.94 216.77"><defs><style>.cls-1{fill:#1d6fa8;}</style></defs><path class="cls-1" d="M170.25,9.4v63.78c0,3.56-2.01,6.82-5.2,8.41l-27.31,13.65c-3.19,1.59-5.2,4.85-5.2,8.41v103.71c0,5.19-4.21,9.4-9.4,9.4h-28.31c-5.19,0-9.4-4.21-9.4-9.4v-84.89c0-3.56,2.01-6.82,5.2-8.41l27.31-13.65c3.19-1.59,5.2-4.85,5.2-8.41V9.4c0-5.19,4.21-9.4,9.4-9.4h28.31c5.19,0,9.4,4.21,9.4,9.4Z"/><path class="cls-1" d="M85.41,56.55v16.62c0,3.56-2.01,6.82-5.2,8.41l-27.31,13.65c-3.19,1.59-5.2,4.85-5.2,8.41v56.61c0,5.19-4.21,9.4-9.4,9.4H10c-5.19,0-9.4-4.21-9.4-9.4v-37.78c0-3.56,2.01-6.82,5.2-8.41l27.31-13.65c3.19-1.59,5.2-4.85,5.2-8.41v-35.44c0-5.19,4.21-9.4,9.4-9.4h28.31c5.19,0,9.4,4.21,9.4,9.4Z"/><path class="cls-1" d="M217.38,111.5v48.72c0,5.21-4.22,9.44-9.44,9.44h-28.24c-5.21,0-9.44-4.22-9.44-9.44v-37.69c0-3.57,2.02-6.84,5.22-8.44l25.48-12.74c7.54-3.77,16.42,1.71,16.42,10.15Z"/><path d="M407.33,151.06h-62.95c-2.05,0-3.19-2.36-1.92-3.97l64.77-81.88c.34-.43.53-.97.53-1.52v-14.1c0-1.35-1.1-2.45-2.45-2.45h-84.32c-1.35,0-2.45,1.1-2.45,2.45v13.69c0,1.35,1.1,2.45,2.45,2.45h55.68c2.05,0,3.19,2.37,1.92,3.97l-64.92,81.87c-.34.43-.53.97-.53,1.52v14.1c0,1.35,1.1,2.45,2.45,2.45h91.75c1.35,0,2.45-1.1,2.45-2.45v-13.69c0-1.35-1.1-2.45-2.45-2.45Z"/><path d="M696.35,62.6v-13.01c0-1.35-1.1-2.45-2.45-2.45h-273.39c-1.35,0-2.45,1.1-2.45,2.45v117.61c0,1.35,1.1,2.45,2.45,2.45h81.78c1.35,0,2.45-1.1,2.45-2.45v-13.18c0-1.35-1.1-2.45-2.45-2.45h-60.32c-1.35,0-2.45-1.1-2.45-2.45v-31.09c0-1.35,1.1-2.45,2.45-2.45h56.77c1.35,0,2.45-1.1,2.45-2.45v-12.84c0-1.35-1.1-2.45-2.45-2.45h-56.77c-1.35,0-2.45-1.1-2.45-2.45v-27.88c0-1.35,1.1-2.45,2.45-2.45h96.14c1.35,0,2.45,1.1,2.45,2.45v99.69c0,1.35,1.1,2.45,2.45,2.45h16.56c1.35,0,2.45-1.1,2.45-2.45v-99.69c0-1.35,1.1-2.45,2.45-2.45h69.44c1.35,0,2.45,1.1,2.45,2.45v99.69c0,1.35,1.1,2.45,2.45,2.45h16.56c1.35,0,2.45-1.1,2.45-2.45v-99.69c0-1.35,1.1-2.45,2.45-2.45h33.63c1.35,0,2.45-1.1,2.45-2.45Z"/><path d="M745.78,48.73c-.36-.96-1.27-1.59-2.29-1.59h-19.24c-1.02,0-1.94.64-2.3,1.59l-43.8,117.61c-.6,1.6.59,3.3,2.3,3.3h16.7c1.04,0,1.97-.66,2.31-1.64l8.32-23.91c.34-.98,1.27-1.64,2.31-1.64h46.21c1.04,0,1.96.65,2.31,1.63l8.48,23.94c.35.98,1.27,1.63,2.31,1.63h18.22c1.71,0,2.89-1.71,2.29-3.31l-44.12-117.61ZM748.14,124.53h-30.09c-1.69,0-2.87-1.67-2.31-3.26l14.97-42.72c.77-2.18,3.85-2.19,4.62,0l15.11,42.72c.56,1.59-.62,3.27-2.31,3.27Z"/><path d="M875.07,106.37c-1.48-.85-1.7-2.88-.4-3.99,2.76-2.36,5.16-5.53,7.19-9.51,2.21-4.33,3.35-9.15,3.4-14.01.22-21.15-14.48-31.72-44.1-31.72h-43.68c-1.35,0-2.45,1.1-2.45,2.45v117.61c0,1.35,1.1,2.45,2.45,2.45h46.72c13.63,0,24.67-2.96,33.12-8.87,8.45-5.91,12.67-15.06,12.67-27.46s-4.97-21.25-14.92-26.95ZM816.49,66.83c0-1.35,1.1-2.45,2.45-2.45h24.25c6.19,0,11.12,1.41,14.78,4.22,3.66,2.82,5.49,6.87,5.49,12.17,0,11.72-6.76,17.57-20.28,17.57h-24.25c-1.35,0-2.45-1.1-2.45-2.45v-29.06ZM845.05,152.41h-26.11c-1.35,0-2.45-1.1-2.45-2.45v-32.78c0-1.35,1.1-2.45,2.45-2.45h24.92c15.99,0,23.99,6.2,23.99,18.59s-7.6,19.09-22.81,19.09Z"/><path d="M1117.17,65.05h60.32c1.35,0,2.45-1.1,2.45-2.45v-13.01c0-1.35-1.1-2.45-2.45-2.45h-205.82c-.88,0-1.69.47-2.13,1.24l-28.4,49.74c-.95,1.66-3.34,1.64-4.27-.03l-27.6-49.68c-.43-.78-1.25-1.26-2.14-1.26h-18.79c-1.89,0-3.07,2.05-2.11,3.69l41.27,70.6c.22.38.33.8.33,1.24v44.54c0,1.35,1.1,2.45,2.45,2.45h16.56c1.35,0,2.45-1.1,2.45-2.45v-44.18c0-.44.12-.88.35-1.26l33.31-55.51c.44-.74,1.24-1.19,2.1-1.19h41.04c1.35,0,2.45,1.1,2.45,2.45v99.69c0,1.35,1.1,2.45,2.45,2.45h16.56c1.35,0,2.45-1.1,2.45-2.45v-99.69c0-1.35,1.1-2.45,2.45-2.45h40.81v102.14c0,1.35,1.1,2.45,2.45,2.45h81.78c1.35,0,2.45-1.1,2.45-2.45v-13.18c0-1.35-1.1-2.45-2.45-2.45h-60.32c-1.35,0-2.45-1.1-2.45-2.45v-31.09c0-1.35,1.1-2.45,2.45-2.45h56.77c1.35,0,2.45-1.1,2.45-2.45v-12.84c0-1.35-1.1-2.45-2.45-2.45h-56.77c-1.35,0-2.45-1.1-2.45-2.45v-27.88c0-1.35,1.1-2.45,2.45-2.45Z"/></svg>